<svg xmlns="http://www.w3.org/2000/svg" xmlns:xlink="http://www.w3.org/1999/xlink" width="158" zoomAndPan="magnify" viewBox="0 0 118.5 118.499997" height="158" preserveAspectRatio="xMidYMid meet" version="1.0"><path fill="#000000" d="M 109.949219 25.5 C 112.199219 22.265625 114.765625 19.175781 117.625 16.265625 L 117.371094 16.011719 C 114.464844 18.890625 111.371094 21.441406 108.136719 23.707031 C 103.863281 26.675781 99.324219 29.117188 94.621094 31.023438 C 96.519531 26.3125 98.957031 21.773438 101.945312 17.5 C 104.195312 14.265625 106.761719 11.171875 109.621094 8.265625 L 109.371094 8.011719 C 106.460938 10.886719 103.371094 13.4375 100.136719 15.703125 C 95.851562 18.683594 91.3125 21.125 86.601562 23.023438 C 88.511719 18.300781 90.949219 13.761719 93.9375 9.488281 C 96.1875 6.253906 98.753906 3.164062 101.613281 0.253906 L 101.359375 0 C 98.449219 2.878906 95.359375 5.425781 92.125 7.691406 C 66.703125 25.390625 32.078125 24.0625 6.816406 5.0625 C 6.019531 4.476562 0.902344 -0.660156 0.0585938 0.183594 C -0.0507812 0.628906 0.00390625 0.9375 0.15625 1.183594 C 0.386719 1.621094 0.832031 1.890625 1.117188 2.304688 C 5.535156 8.597656 9.222656 13.511719 12.195312 18.691406 C 15.613281 24.636719 18.058594 30.929688 19.507812 40.050781 C 20.5 46.304688 20.875 51.671875 20.300781 56.074219 C 20.300781 56.089844 20.300781 56.121094 20.285156 56.136719 C 19.894531 66.859375 17.296875 77.515625 12.464844 87.351562 L 12.410156 87.410156 C 12.402344 87.449219 12.386719 87.480469 12.386719 87.527344 C 11.984375 88.347656 11.550781 89.171875 11.109375 89.984375 C 11.335938 89.929688 11.585938 89.871094 11.816406 89.816406 C 11.742188 90.03125 11.6875 90.277344 11.632812 90.507812 C 12.453125 90.074219 13.277344 89.640625 14.113281 89.238281 C 14.144531 89.222656 14.175781 89.222656 14.214844 89.214844 L 14.261719 89.167969 C 17.636719 87.503906 21.113281 86.101562 24.65625 84.972656 C 23.527344 88.515625 22.128906 91.980469 20.476562 95.363281 L 20.421875 95.421875 C 20.410156 95.460938 20.398438 95.492188 20.398438 95.539062 C 19.992188 96.359375 19.5625 97.183594 19.117188 97.996094 C 19.347656 97.941406 19.59375 97.882812 19.824219 97.828125 C 19.75 98.042969 19.695312 98.289062 19.640625 98.519531 C 20.457031 98.085938 21.285156 97.65625 22.121094 97.25 C 22.152344 97.234375 22.183594 97.234375 22.222656 97.226562 L 22.269531 97.179688 C 25.648438 95.515625 29.113281 94.121094 32.65625 92.992188 C 31.535156 96.527344 30.128906 100 28.476562 103.371094 L 28.421875 103.425781 C 28.414062 103.464844 28.398438 103.496094 28.398438 103.542969 C 27.992188 104.363281 27.5625 105.1875 27.117188 106 C 27.347656 105.945312 27.59375 105.890625 27.824219 105.835938 C 27.753906 106.050781 27.695312 106.292969 27.640625 106.527344 C 28.460938 106.089844 29.285156 105.660156 30.121094 105.253906 C 30.152344 105.238281 30.183594 105.238281 30.222656 105.230469 L 30.269531 105.183594 C 40.109375 100.335938 50.757812 97.730469 61.476562 97.339844 C 61.5 97.332031 61.542969 97.339844 61.558594 97.339844 C 65.953125 96.761719 71.316406 97.132812 77.570312 98.125 C 86.699219 99.582031 92.996094 102.027344 98.9375 105.445312 C 104.121094 108.414062 109.023438 112.097656 115.316406 116.515625 C 115.730469 116.800781 116 117.246094 116.4375 117.476562 C 116.683594 117.625 117.003906 117.691406 117.4375 117.570312 C 118.28125 116.726562 113.148438 111.609375 112.558594 110.816406 C 93.550781 85.542969 92.222656 50.917969 109.945312 25.503906 Z M 22.136719 25.996094 C 21.558594 24.859375 20.898438 23.769531 20.230469 22.6875 C 23.304688 27.019531 25.957031 30.789062 28.207031 34.703125 C 31.625 40.648438 34.070312 46.941406 35.519531 56.066406 C 35.820312 57.988281 36.066406 59.824219 36.242188 61.574219 C 34.082031 62.828125 31.9375 63.957031 29.910156 64.902344 C 30.902344 51.542969 28.242188 38.058594 22.136719 25.992188 Z M 74.371094 62.257812 C 74.4375 62.242188 74.507812 62.234375 74.570312 62.214844 C 77.828125 68.320312 80.792969 74.703125 82.984375 78.421875 C 85.785156 83.171875 88.558594 88.09375 92.363281 92.136719 C 91.925781 92.734375 91.226562 92 90.765625 91.746094 C 88.359375 90.386719 86.117188 88.75 83.628906 87.488281 C 75.261719 83.25 66.21875 80.679688 56.992188 79.828125 C 57.777344 78.53125 58.605469 77.242188 59.460938 75.988281 C 63.554688 70.019531 68.339844 64.746094 72.589844 62.859375 C 73.1875 62.582031 73.792969 62.375 74.371094 62.253906 Z M 25.492188 25.261719 C 29.535156 29.070312 34.464844 31.851562 39.214844 34.648438 C 42.933594 36.839844 49.324219 39.796875 55.417969 43.0625 C 55.40625 43.125 55.394531 43.199219 55.382812 43.261719 C 55.246094 43.824219 55.039062 44.429688 54.777344 45.042969 C 52.875 49.277344 47.609375 54.070312 41.648438 58.171875 C 40.394531 59.027344 39.105469 59.855469 37.800781 60.632812 C 36.953125 51.40625 34.375 42.363281 30.140625 33.996094 C 28.878906 31.507812 27.238281 29.265625 25.878906 26.859375 C 25.625 26.398438 24.902344 25.707031 25.492188 25.261719 Z M 36.265625 72.691406 C 36.8125 71.476562 37.425781 70.195312 38.101562 68.898438 C 39.628906 65.960938 41.457031 62.890625 43.449219 59.976562 C 47.542969 54.007812 52.328125 48.730469 56.578125 46.847656 C 57.175781 46.570312 57.78125 46.363281 58.359375 46.242188 C 59.289062 46.042969 60.027344 45.972656 60.726562 46.050781 C 61.410156 46.148438 62.0625 46.386719 62.84375 46.785156 C 62.992188 47.078125 63.121094 47.347656 63.222656 47.609375 C 63.683594 48.753906 63.714844 49.738281 63.390625 51.273438 C 63.253906 51.835938 63.046875 52.441406 62.785156 53.054688 C 60.886719 57.289062 55.617188 62.082031 49.65625 66.183594 C 45.796875 68.820312 41.636719 71.179688 37.910156 72.921875 C 37.332031 73.183594 36.765625 73.445312 36.21875 73.675781 C 36.058594 73.742188 35.914062 73.804688 35.765625 73.859375 C 35.925781 73.480469 36.089844 73.089844 36.265625 72.691406 Z M 43.976562 81.398438 C 44.203125 80.851562 44.46875 80.289062 44.738281 79.714844 C 46.460938 75.988281 48.824219 71.847656 51.460938 67.984375 C 55.554688 62.019531 60.339844 56.742188 64.589844 54.859375 C 65.1875 54.582031 65.789062 54.371094 66.371094 54.253906 C 67.894531 53.917969 68.871094 53.960938 70.015625 54.402344 L 70.023438 54.414062 C 70.289062 54.515625 70.558594 54.644531 70.851562 54.792969 C 71.25 55.574219 71.488281 56.226562 71.574219 56.914062 C 71.664062 57.605469 71.589844 58.347656 71.390625 59.273438 C 71.257812 59.839844 71.050781 60.445312 70.789062 61.054688 C 68.886719 65.292969 63.621094 70.085938 57.660156 74.183594 C 54.742188 76.179688 51.675781 78.007812 48.742188 79.523438 C 47.457031 80.191406 46.191406 80.804688 44.984375 81.34375 C 44.578125 81.527344 44.171875 81.691406 43.78125 81.859375 C 43.835938 81.710938 43.910156 81.558594 43.972656 81.398438 Z M 56.070312 81.382812 C 57.820312 81.558594 59.644531 81.8125 61.5625 82.109375 C 70.691406 83.5625 76.984375 86.007812 82.929688 89.425781 C 86.855469 91.683594 90.625 94.335938 94.960938 97.421875 C 93.878906 96.738281 92.792969 96.078125 91.640625 95.496094 C 79.578125 89.394531 66.089844 86.730469 52.734375 87.726562 C 53.679688 85.699219 54.808594 83.539062 56.070312 81.382812 Z M 22.128906 67.707031 C 21.636719 67.804688 20.4375 68.128906 20.339844 67.476562 C 24.066406 50.78125 21.84375 33.25 14.125 17.984375 C 13.546875 16.832031 12.886719 15.742188 12.203125 14.660156 C 15.285156 19 17.949219 22.773438 20.207031 26.699219 C 23.621094 32.644531 26.070312 38.9375 27.515625 48.0625 C 28.507812 54.316406 28.882812 59.679688 28.3125 64.082031 C 28.3125 64.097656 28.3125 64.128906 28.296875 64.148438 C 28.28125 64.65625 28.257812 65.15625 28.21875 65.65625 C 25.902344 66.648438 23.804688 67.363281 22.128906 67.707031 Z M 99.644531 103.5 C 84.378906 95.785156 66.84375 93.558594 50.15625 97.292969 C 49.496094 97.191406 49.816406 95.980469 49.917969 95.5 C 50.261719 93.820312 50.976562 91.722656 51.96875 89.410156 C 52.46875 89.371094 52.972656 89.347656 53.480469 89.332031 C 53.503906 89.324219 53.542969 89.332031 53.558594 89.332031 C 57.953125 88.753906 63.316406 89.125 69.570312 90.117188 C 78.703125 91.574219 84.996094 94.019531 90.941406 97.4375 C 94.859375 99.6875 98.625 102.339844 102.949219 105.40625 C 101.867188 104.738281 100.777344 104.078125 99.644531 103.5 Z M 99.644531 103.5 " fill-opacity="1" fill-rule="nonzero"/><path fill="#000000" d="M 109.949219 25.5 C 112.199219 22.265625 114.765625 19.175781 117.625 16.265625 L 117.371094 16.011719 C 114.464844 18.890625 111.371094 21.441406 108.136719 23.707031 C 103.863281 26.675781 99.324219 29.117188 94.621094 31.023438 C 96.519531 26.3125 98.957031 21.773438 101.945312 17.5 C 104.195312 14.265625 106.761719 11.171875 109.621094 8.265625 L 109.371094 8.011719 C 106.460938 10.886719 103.371094 13.4375 100.136719 15.703125 C 95.851562 18.683594 91.3125 21.125 86.601562 23.023438 C 88.511719 18.300781 90.949219 13.761719 93.9375 9.488281 C 96.1875 6.253906 98.753906 3.164062 101.613281 0.253906 L 101.359375 0 C 98.449219 2.878906 95.359375 5.425781 92.125 7.691406 C 66.703125 25.390625 32.078125 24.0625 6.816406 5.0625 C 6.019531 4.476562 0.902344 -0.660156 0.0585938 0.183594 C -0.0507812 0.628906 0.00390625 0.9375 0.15625 1.183594 C 0.386719 1.621094 0.832031 1.890625 1.117188 2.304688 C 5.535156 8.597656 9.222656 13.511719 12.195312 18.691406 C 15.613281 24.636719 18.058594 30.929688 19.507812 40.050781 C 20.5 46.304688 20.875 51.671875 20.300781 56.074219 C 20.300781 56.089844 20.300781 56.121094 20.285156 56.136719 C 19.894531 66.859375 17.296875 77.515625 12.464844 87.351562 L 12.410156 87.410156 C 12.402344 87.449219 12.386719 87.480469 12.386719 87.527344 C 11.984375 88.347656 11.550781 89.171875 11.109375 89.984375 C 11.335938 89.929688 11.585938 89.871094 11.816406 89.816406 C 11.742188 90.03125 11.6875 90.277344 11.632812 90.507812 C 12.453125 90.074219 13.277344 89.640625 14.113281 89.238281 C 14.144531 89.222656 14.175781 89.222656 14.214844 89.214844 L 14.261719 89.167969 C 17.636719 87.503906 21.113281 86.101562 24.65625 84.972656 C 23.527344 88.515625 22.128906 91.980469 20.476562 95.363281 L 20.421875 95.421875 C 20.410156 95.460938 20.398438 95.492188 20.398438 95.539062 C 19.992188 96.359375 19.5625 97.183594 19.117188 97.996094 C 19.347656 97.941406 19.59375 97.882812 19.824219 97.828125 C 19.75 98.042969 19.695312 98.289062 19.640625 98.519531 C 20.457031 98.085938 21.285156 97.65625 22.121094 97.25 C 22.152344 97.234375 22.183594 97.234375 22.222656 97.226562 L 22.269531 97.179688 C 25.648438 95.515625 29.113281 94.121094 32.65625 92.992188 C 31.535156 96.527344 30.128906 100 28.476562 103.371094 L 28.421875 103.425781 C 28.414062 103.464844 28.398438 103.496094 28.398438 103.542969 C 27.992188 104.363281 27.5625 105.1875 27.117188 106 C 27.347656 105.945312 27.59375 105.890625 27.824219 105.835938 C 27.753906 106.050781 27.695312 106.292969 27.640625 106.527344 C 28.460938 106.089844 29.285156 105.660156 30.121094 105.253906 C 30.152344 105.238281 30.183594 105.238281 30.222656 105.230469 L 30.269531 105.183594 C 40.109375 100.335938 50.757812 97.730469 61.476562 97.339844 C 61.5 97.332031 61.542969 97.339844 61.558594 97.339844 C 65.953125 96.761719 71.316406 97.132812 77.570312 98.125 C 86.699219 99.582031 92.996094 102.027344 98.9375 105.445312 C 104.121094 108.414062 109.023438 112.097656 115.316406 116.515625 C 115.730469 116.800781 116 117.246094 116.4375 117.476562 C 116.683594 117.625 117.003906 117.691406 117.4375 117.570312 C 118.28125 116.726562 113.148438 111.609375 112.558594 110.816406 C 93.550781 85.542969 92.222656 50.917969 109.945312 25.503906 Z M 22.136719 25.996094 C 21.558594 24.859375 20.898438 23.769531 20.230469 22.6875 C 23.304688 27.019531 25.957031 30.789062 28.207031 34.703125 C 31.625 40.648438 34.070312 46.941406 35.519531 56.066406 C 35.820312 57.988281 36.066406 59.824219 36.242188 61.574219 C 34.082031 62.828125 31.9375 63.957031 29.910156 64.902344 C 30.902344 51.542969 28.242188 38.058594 22.136719 25.992188 Z M 74.371094 62.257812 C 74.4375 62.242188 74.507812 62.234375 74.570312 62.214844 C 77.828125 68.320312 80.792969 74.703125 82.984375 78.421875 C 85.785156 83.171875 88.558594 88.09375 92.363281 92.136719 C 91.925781 92.734375 91.226562 92 90.765625 91.746094 C 88.359375 90.386719 86.117188 88.75 83.628906 87.488281 C 75.261719 83.25 66.21875 80.679688 56.992188 79.828125 C 57.777344 78.53125 58.605469 77.242188 59.460938 75.988281 C 63.554688 70.019531 68.339844 64.746094 72.589844 62.859375 C 73.1875 62.582031 73.792969 62.375 74.371094 62.253906 Z M 25.492188 25.261719 C 29.535156 29.070312 34.464844 31.851562 39.214844 34.648438 C 42.933594 36.839844 49.324219 39.796875 55.417969 43.0625 C 55.40625 43.125 55.394531 43.199219 55.382812 43.261719 C 55.246094 43.824219 55.039062 44.429688 54.777344 45.042969 C 52.875 49.277344 47.609375 54.070312 41.648438 58.171875 C 40.394531 59.027344 39.105469 59.855469 37.800781 60.632812 C 36.953125 51.40625 34.375 42.363281 30.140625 33.996094 C 28.878906 31.507812 27.238281 29.265625 25.878906 26.859375 C 25.625 26.398438 24.902344 25.707031 25.492188 25.261719 Z M 36.265625 72.691406 C 36.8125 71.476562 37.425781 70.195312 38.101562 68.898438 C 39.628906 65.960938 41.457031 62.890625 43.449219 59.976562 C 47.542969 54.007812 52.328125 48.730469 56.578125 46.847656 C 57.175781 46.570312 57.78125 46.363281 58.359375 46.242188 C 59.289062 46.042969 60.027344 45.972656 60.726562 46.050781 C 61.410156 46.148438 62.0625 46.386719 62.84375 46.785156 C 62.992188 47.078125 63.121094 47.347656 63.222656 47.609375 C 63.683594 48.753906 63.714844 49.738281 63.390625 51.273438 C 63.253906 51.835938 63.046875 52.441406 62.785156 53.054688 C 60.886719 57.289062 55.617188 62.082031 49.65625 66.183594 C 45.796875 68.820312 41.636719 71.179688 37.910156 72.921875 C 37.332031 73.183594 36.765625 73.445312 36.21875 73.675781 C 36.058594 73.742188 35.914062 73.804688 35.765625 73.859375 C 35.925781 73.480469 36.089844 73.089844 36.265625 72.691406 Z M 43.976562 81.398438 C 44.203125 80.851562 44.46875 80.289062 44.738281 79.714844 C 46.460938 75.988281 48.824219 71.847656 51.460938 67.984375 C 55.554688 62.019531 60.339844 56.742188 64.589844 54.859375 C 65.1875 54.582031 65.789062 54.371094 66.371094 54.253906 C 67.894531 53.917969 68.871094 53.960938 70.015625 54.402344 L 70.023438 54.414062 C 70.289062 54.515625 70.558594 54.644531 70.851562 54.792969 C 71.25 55.574219 71.488281 56.226562 71.574219 56.914062 C 71.664062 57.605469 71.589844 58.347656 71.390625 59.273438 C 71.257812 59.839844 71.050781 60.445312 70.789062 61.054688 C 68.886719 65.292969 63.621094 70.085938 57.660156 74.183594 C 54.742188 76.179688 51.675781 78.007812 48.742188 79.523438 C 47.457031 80.191406 46.191406 80.804688 44.984375 81.34375 C 44.578125 81.527344 44.171875 81.691406 43.78125 81.859375 C 43.835938 81.710938 43.910156 81.558594 43.972656 81.398438 Z M 56.070312 81.382812 C 57.820312 81.558594 59.644531 81.8125 61.5625 82.109375 C 70.691406 83.5625 76.984375 86.007812 82.929688 89.425781 C 86.855469 91.683594 90.625 94.335938 94.960938 97.421875 C 93.878906 96.738281 92.792969 96.078125 91.640625 95.496094 C 79.578125 89.394531 66.089844 86.730469 52.734375 87.726562 C 53.679688 85.699219 54.808594 83.539062 56.070312 81.382812 Z M 22.128906 67.707031 C 21.636719 67.804688 20.4375 68.128906 20.339844 67.476562 C 24.066406 50.78125 21.84375 33.25 14.125 17.984375 C 13.546875 16.832031 12.886719 15.742188 12.203125 14.660156 C 15.285156 19 17.949219 22.773438 20.207031 26.699219 C 23.621094 32.644531 26.070312 38.9375 27.515625 48.0625 C 28.507812 54.316406 28.882812 59.679688 28.3125 64.082031 C 28.3125 64.097656 28.3125 64.128906 28.296875 64.148438 C 28.28125 64.65625 28.257812 65.15625 28.21875 65.65625 C 25.902344 66.648438 23.804688 67.363281 22.128906 67.707031 Z M 99.644531 103.5 C 84.378906 95.785156 66.84375 93.558594 50.15625 97.292969 C 49.496094 97.191406 49.816406 95.980469 49.917969 95.5 C 50.261719 93.820312 50.976562 91.722656 51.96875 89.410156 C 52.46875 89.371094 52.972656 89.347656 53.480469 89.332031 C 53.503906 89.324219 53.542969 89.332031 53.558594 89.332031 C 57.953125 88.753906 63.316406 89.125 69.570312 90.117188 C 78.703125 91.574219 84.996094 94.019531 90.941406 97.4375 C 94.859375 99.6875 98.625 102.339844 102.949219 105.40625 C 101.867188 104.738281 100.777344 104.078125 99.644531 103.5 Z M 99.644531 103.5 " fill-opacity="1" fill-rule="nonzero"/></svg>