<svg xmlns="http://www.w3.org/2000/svg" xmlns:xlink="http://www.w3.org/1999/xlink" width="158" zoomAndPan="magnify" viewBox="0 0 118.5 118.499997" height="158" preserveAspectRatio="xMidYMid meet" version="1.0"><defs><clipPath id="22792e144b"><path d="M 0 0 L 118 0 L 118 118.003906 L 0 118.003906 Z M 0 0 " clip-rule="nonzero"/></clipPath></defs><g clip-path="url(#22792e144b)"><path fill="#ffffff" d="M 110.300781 25.582031 C 112.554688 22.335938 115.128906 19.238281 118 16.316406 L 117.746094 16.0625 C 114.828125 18.949219 111.726562 21.507812 108.480469 23.78125 C 104.191406 26.761719 99.640625 29.210938 94.921875 31.121094 C 96.824219 26.394531 99.273438 21.84375 102.269531 17.554688 C 104.527344 14.308594 107.101562 11.207031 109.972656 8.289062 L 109.714844 8.035156 C 106.800781 10.921875 103.699219 13.480469 100.453125 15.753906 C 96.15625 18.742188 91.605469 21.191406 86.878906 23.09375 C 88.792969 18.359375 91.238281 13.808594 94.234375 9.519531 C 96.492188 6.273438 99.066406 3.171875 101.9375 0.253906 L 101.683594 0 C 98.761719 2.886719 95.664062 5.445312 92.417969 7.71875 C 66.914062 25.472656 32.179688 24.140625 6.835938 5.078125 C 6.039062 4.488281 0.90625 -0.664062 0.0585938 0.183594 C -0.0507812 0.628906 0.00390625 0.941406 0.15625 1.1875 C 0.386719 1.625 0.832031 1.898438 1.121094 2.3125 C 5.554688 8.625 9.253906 13.554688 12.234375 18.75 C 15.664062 24.714844 18.117188 31.027344 19.566406 40.179688 C 20.5625 46.453125 20.941406 51.835938 20.367188 56.25 C 20.367188 56.265625 20.367188 56.300781 20.351562 56.316406 C 19.960938 67.070312 17.351562 77.761719 12.507812 87.628906 L 12.449219 87.6875 C 12.441406 87.726562 12.425781 87.757812 12.425781 87.804688 C 12.019531 88.625 11.589844 89.457031 11.144531 90.269531 C 11.375 90.214844 11.621094 90.15625 11.851562 90.101562 C 11.78125 90.316406 11.726562 90.5625 11.671875 90.796875 C 12.492188 90.359375 13.320312 89.925781 14.15625 89.519531 C 14.1875 89.503906 14.222656 89.503906 14.261719 89.496094 L 14.308594 89.449219 C 17.695312 87.785156 21.179688 86.371094 24.734375 85.242188 C 23.601562 88.796875 22.199219 92.273438 20.539062 95.667969 L 20.484375 95.722656 C 20.476562 95.765625 20.460938 95.796875 20.460938 95.84375 C 20.054688 96.664062 19.625 97.492188 19.175781 98.304688 C 19.410156 98.25 19.65625 98.195312 19.886719 98.140625 C 19.816406 98.355469 19.757812 98.601562 19.703125 98.832031 C 20.523438 98.394531 21.351562 97.964844 22.191406 97.558594 C 22.222656 97.542969 22.253906 97.542969 22.292969 97.535156 L 22.339844 97.488281 C 25.730469 95.820312 29.207031 94.417969 32.761719 93.285156 C 31.636719 96.832031 30.226562 100.316406 28.566406 103.699219 L 28.511719 103.753906 C 28.503906 103.792969 28.488281 103.824219 28.488281 103.875 C 28.082031 104.695312 27.648438 105.523438 27.203125 106.335938 C 27.433594 106.28125 27.683594 106.226562 27.914062 106.171875 C 27.84375 106.386719 27.785156 106.632812 27.730469 106.863281 C 28.550781 106.425781 29.378906 105.996094 30.214844 105.589844 C 30.25 105.574219 30.28125 105.574219 30.320312 105.566406 L 30.367188 105.519531 C 40.234375 100.65625 50.917969 98.039062 61.671875 97.648438 C 61.695312 97.640625 61.738281 97.648438 61.753906 97.648438 C 66.160156 97.066406 71.542969 97.441406 77.816406 98.4375 C 86.976562 99.898438 93.289062 102.351562 99.253906 105.777344 C 104.453125 108.761719 109.371094 112.453125 115.683594 116.882812 C 116.097656 117.171875 116.371094 117.617188 116.808594 117.847656 C 117.054688 118 117.375 118.0625 117.8125 117.945312 C 118.65625 117.097656 113.507812 111.964844 112.917969 111.167969 C 93.847656 85.816406 92.515625 51.082031 110.292969 25.585938 Z M 22.207031 26.078125 C 21.625 24.9375 20.964844 23.84375 20.292969 22.761719 C 23.378906 27.105469 26.039062 30.886719 28.296875 34.816406 C 31.722656 40.777344 34.179688 47.089844 35.632812 56.242188 C 35.933594 58.171875 36.179688 60.015625 36.359375 61.769531 C 34.1875 63.027344 32.039062 64.160156 30.003906 65.109375 C 31 51.707031 28.332031 38.179688 22.207031 26.074219 Z M 74.609375 62.453125 C 74.671875 62.4375 74.742188 62.429688 74.808594 62.414062 C 78.078125 68.539062 81.050781 74.9375 83.25 78.667969 C 86.054688 83.4375 88.839844 88.371094 92.65625 92.429688 C 92.21875 93.027344 91.519531 92.292969 91.054688 92.039062 C 88.636719 90.675781 86.390625 89.03125 83.894531 87.765625 C 75.5 83.515625 66.425781 80.933594 57.171875 80.078125 C 57.960938 78.78125 58.789062 77.488281 59.652344 76.230469 C 63.757812 70.242188 68.554688 64.949219 72.820312 63.058594 C 73.417969 62.78125 74.027344 62.574219 74.605469 62.453125 Z M 25.570312 25.34375 C 29.628906 29.160156 34.574219 31.953125 39.339844 34.757812 C 43.070312 36.957031 49.480469 39.921875 55.597656 43.199219 C 55.582031 43.265625 55.570312 43.335938 55.558594 43.398438 C 55.421875 43.964844 55.214844 44.570312 54.949219 45.183594 C 53.042969 49.433594 47.757812 54.242188 41.78125 58.355469 C 40.519531 59.214844 39.230469 60.046875 37.921875 60.828125 C 37.070312 51.570312 34.484375 42.5 30.234375 34.105469 C 28.96875 31.609375 27.324219 29.359375 25.960938 26.945312 C 25.707031 26.484375 24.980469 25.789062 25.570312 25.34375 Z M 36.382812 72.921875 C 36.929688 71.703125 37.546875 70.417969 38.222656 69.117188 C 39.753906 66.167969 41.585938 63.089844 43.589844 60.167969 C 47.695312 54.179688 52.492188 48.886719 56.757812 46.996094 C 57.355469 46.71875 57.964844 46.507812 58.542969 46.390625 C 59.476562 46.191406 60.21875 46.117188 60.921875 46.199219 C 61.605469 46.292969 62.261719 46.535156 63.042969 46.933594 C 63.195312 47.226562 63.320312 47.496094 63.425781 47.761719 C 63.886719 48.910156 63.917969 49.898438 63.589844 51.4375 C 63.457031 52.003906 63.246094 52.609375 62.984375 53.222656 C 61.078125 57.472656 55.792969 62.277344 49.816406 66.390625 C 45.941406 69.039062 41.769531 71.40625 38.03125 73.152344 C 37.449219 73.414062 36.882812 73.679688 36.332031 73.910156 C 36.175781 73.976562 36.03125 74.039062 35.878906 74.09375 C 36.039062 73.710938 36.207031 73.320312 36.382812 72.921875 Z M 44.113281 81.660156 C 44.34375 81.109375 44.609375 80.542969 44.878906 79.96875 C 46.609375 76.230469 48.976562 72.074219 51.625 68.203125 C 55.730469 62.214844 60.53125 56.921875 64.792969 55.03125 C 65.394531 54.753906 65.996094 54.542969 66.582031 54.425781 C 68.109375 54.089844 69.089844 54.128906 70.238281 54.578125 L 70.246094 54.585938 C 70.511719 54.691406 70.78125 54.816406 71.078125 54.96875 C 71.476562 55.75 71.714844 56.402344 71.800781 57.097656 C 71.890625 57.789062 71.816406 58.53125 71.617188 59.464844 C 71.484375 60.03125 71.277344 60.636719 71.011719 61.25 C 69.105469 65.5 63.824219 70.304688 57.84375 74.417969 C 54.917969 76.421875 51.839844 78.253906 48.898438 79.777344 C 47.605469 80.445312 46.339844 81.0625 45.125 81.601562 C 44.71875 81.785156 44.3125 81.953125 43.921875 82.121094 C 43.976562 81.96875 44.050781 81.816406 44.113281 81.660156 Z M 56.25 81.640625 C 58.003906 81.816406 59.835938 82.070312 61.757812 82.367188 C 70.917969 83.828125 77.230469 86.28125 83.195312 89.710938 C 87.132812 91.972656 90.910156 94.636719 95.265625 97.730469 C 94.179688 97.042969 93.085938 96.382812 91.933594 95.800781 C 79.832031 89.675781 66.300781 87.007812 52.898438 88.003906 C 53.847656 85.96875 54.980469 83.800781 56.25 81.640625 Z M 22.199219 67.921875 C 21.707031 68.019531 20.5 68.34375 20.40625 67.691406 C 24.144531 50.941406 21.914062 33.355469 14.171875 18.039062 C 13.589844 16.882812 12.925781 15.792969 12.242188 14.707031 C 15.335938 19.058594 18.007812 22.847656 20.269531 26.785156 C 23.695312 32.75 26.152344 39.0625 27.605469 48.214844 C 28.601562 54.488281 28.976562 59.871094 28.402344 64.285156 C 28.402344 64.300781 28.402344 64.332031 28.386719 64.351562 C 28.371094 64.859375 28.347656 65.363281 28.308594 65.863281 C 25.988281 66.859375 23.882812 67.578125 22.199219 67.921875 Z M 99.960938 103.828125 C 84.644531 96.085938 67.058594 93.855469 50.316406 97.601562 C 49.65625 97.5 49.972656 96.285156 50.078125 95.800781 C 50.417969 94.121094 51.136719 92.015625 52.136719 89.695312 C 52.636719 89.65625 53.140625 89.628906 53.648438 89.617188 C 53.671875 89.605469 53.714844 89.617188 53.730469 89.617188 C 58.136719 89.035156 63.519531 89.40625 69.792969 90.402344 C 78.953125 91.863281 85.265625 94.320312 91.230469 97.746094 C 95.160156 100.003906 98.9375 102.664062 103.277344 105.742188 C 102.191406 105.074219 101.097656 104.410156 99.960938 103.828125 Z M 99.960938 103.828125 " fill-opacity="1" fill-rule="nonzero"/><path fill="#ffffff" d="M 110.300781 25.582031 C 112.554688 22.335938 115.128906 19.238281 118 16.316406 L 117.746094 16.0625 C 114.828125 18.949219 111.726562 21.507812 108.480469 23.78125 C 104.191406 26.761719 99.640625 29.210938 94.921875 31.121094 C 96.824219 26.394531 99.273438 21.84375 102.269531 17.554688 C 104.527344 14.308594 107.101562 11.207031 109.972656 8.289062 L 109.714844 8.035156 C 106.800781 10.921875 103.699219 13.480469 100.453125 15.753906 C 96.15625 18.742188 91.605469 21.191406 86.878906 23.09375 C 88.792969 18.359375 91.238281 13.808594 94.234375 9.519531 C 96.492188 6.273438 99.066406 3.171875 101.9375 0.253906 L 101.683594 0 C 98.761719 2.886719 95.664062 5.445312 92.417969 7.71875 C 66.914062 25.472656 32.179688 24.140625 6.835938 5.078125 C 6.039062 4.488281 0.90625 -0.664062 0.0585938 0.183594 C -0.0507812 0.628906 0.00390625 0.941406 0.15625 1.1875 C 0.386719 1.625 0.832031 1.898438 1.121094 2.3125 C 5.554688 8.625 9.253906 13.554688 12.234375 18.75 C 15.664062 24.714844 18.117188 31.027344 19.566406 40.179688 C 20.5625 46.453125 20.941406 51.835938 20.367188 56.25 C 20.367188 56.265625 20.367188 56.300781 20.351562 56.316406 C 19.960938 67.070312 17.351562 77.761719 12.507812 87.628906 L 12.449219 87.6875 C 12.441406 87.726562 12.425781 87.757812 12.425781 87.804688 C 12.019531 88.625 11.589844 89.457031 11.144531 90.269531 C 11.375 90.214844 11.621094 90.15625 11.851562 90.101562 C 11.78125 90.316406 11.726562 90.5625 11.671875 90.796875 C 12.492188 90.359375 13.320312 89.925781 14.15625 89.519531 C 14.1875 89.503906 14.222656 89.503906 14.261719 89.496094 L 14.308594 89.449219 C 17.695312 87.785156 21.179688 86.371094 24.734375 85.242188 C 23.601562 88.796875 22.199219 92.273438 20.539062 95.667969 L 20.484375 95.722656 C 20.476562 95.765625 20.460938 95.796875 20.460938 95.84375 C 20.054688 96.664062 19.625 97.492188 19.175781 98.304688 C 19.410156 98.25 19.65625 98.195312 19.886719 98.140625 C 19.816406 98.355469 19.757812 98.601562 19.703125 98.832031 C 20.523438 98.394531 21.351562 97.964844 22.191406 97.558594 C 22.222656 97.542969 22.253906 97.542969 22.292969 97.535156 L 22.339844 97.488281 C 25.730469 95.820312 29.207031 94.417969 32.761719 93.285156 C 31.636719 96.832031 30.226562 100.316406 28.566406 103.699219 L 28.511719 103.753906 C 28.503906 103.792969 28.488281 103.824219 28.488281 103.875 C 28.082031 104.695312 27.648438 105.523438 27.203125 106.335938 C 27.433594 106.28125 27.683594 106.226562 27.914062 106.171875 C 27.84375 106.386719 27.785156 106.632812 27.730469 106.863281 C 28.550781 106.425781 29.378906 105.996094 30.214844 105.589844 C 30.25 105.574219 30.28125 105.574219 30.320312 105.566406 L 30.367188 105.519531 C 40.234375 100.65625 50.917969 98.039062 61.671875 97.648438 C 61.695312 97.640625 61.738281 97.648438 61.753906 97.648438 C 66.160156 97.066406 71.542969 97.441406 77.816406 98.4375 C 86.976562 99.898438 93.289062 102.351562 99.253906 105.777344 C 104.453125 108.761719 109.371094 112.453125 115.683594 116.882812 C 116.097656 117.171875 116.371094 117.617188 116.808594 117.847656 C 117.054688 118 117.375 118.0625 117.8125 117.945312 C 118.65625 117.097656 113.507812 111.964844 112.917969 111.167969 C 93.847656 85.816406 92.515625 51.082031 110.292969 25.585938 Z M 22.207031 26.078125 C 21.625 24.9375 20.964844 23.84375 20.292969 22.761719 C 23.378906 27.105469 26.039062 30.886719 28.296875 34.816406 C 31.722656 40.777344 34.179688 47.089844 35.632812 56.242188 C 35.933594 58.171875 36.179688 60.015625 36.359375 61.769531 C 34.1875 63.027344 32.039062 64.160156 30.003906 65.109375 C 31 51.707031 28.332031 38.179688 22.207031 26.074219 Z M 74.609375 62.453125 C 74.671875 62.4375 74.742188 62.429688 74.808594 62.414062 C 78.078125 68.539062 81.050781 74.9375 83.25 78.667969 C 86.054688 83.4375 88.839844 88.371094 92.65625 92.429688 C 92.21875 93.027344 91.519531 92.292969 91.054688 92.039062 C 88.636719 90.675781 86.390625 89.03125 83.894531 87.765625 C 75.5 83.515625 66.425781 80.933594 57.171875 80.078125 C 57.960938 78.78125 58.789062 77.488281 59.652344 76.230469 C 63.757812 70.242188 68.554688 64.949219 72.820312 63.058594 C 73.417969 62.78125 74.027344 62.574219 74.605469 62.453125 Z M 25.570312 25.34375 C 29.628906 29.160156 34.574219 31.953125 39.339844 34.757812 C 43.070312 36.957031 49.480469 39.921875 55.597656 43.199219 C 55.582031 43.265625 55.570312 43.335938 55.558594 43.398438 C 55.421875 43.964844 55.214844 44.570312 54.949219 45.183594 C 53.042969 49.433594 47.757812 54.242188 41.78125 58.355469 C 40.519531 59.214844 39.230469 60.046875 37.921875 60.828125 C 37.070312 51.570312 34.484375 42.5 30.234375 34.105469 C 28.96875 31.609375 27.324219 29.359375 25.960938 26.945312 C 25.707031 26.484375 24.980469 25.789062 25.570312 25.34375 Z M 36.382812 72.921875 C 36.929688 71.703125 37.546875 70.417969 38.222656 69.117188 C 39.753906 66.167969 41.585938 63.089844 43.589844 60.167969 C 47.695312 54.179688 52.492188 48.886719 56.757812 46.996094 C 57.355469 46.71875 57.964844 46.507812 58.542969 46.390625 C 59.476562 46.191406 60.21875 46.117188 60.921875 46.199219 C 61.605469 46.292969 62.261719 46.535156 63.042969 46.933594 C 63.195312 47.226562 63.320312 47.496094 63.425781 47.761719 C 63.886719 48.910156 63.917969 49.898438 63.589844 51.4375 C 63.457031 52.003906 63.246094 52.609375 62.984375 53.222656 C 61.078125 57.472656 55.792969 62.277344 49.816406 66.390625 C 45.941406 69.039062 41.769531 71.40625 38.03125 73.152344 C 37.449219 73.414062 36.882812 73.679688 36.332031 73.910156 C 36.175781 73.976562 36.03125 74.039062 35.878906 74.09375 C 36.039062 73.710938 36.207031 73.320312 36.382812 72.921875 Z M 44.113281 81.660156 C 44.34375 81.109375 44.609375 80.542969 44.878906 79.96875 C 46.609375 76.230469 48.976562 72.074219 51.625 68.203125 C 55.730469 62.214844 60.53125 56.921875 64.792969 55.03125 C 65.394531 54.753906 65.996094 54.542969 66.582031 54.425781 C 68.109375 54.089844 69.089844 54.128906 70.238281 54.578125 L 70.246094 54.585938 C 70.511719 54.691406 70.78125 54.816406 71.078125 54.96875 C 71.476562 55.75 71.714844 56.402344 71.800781 57.097656 C 71.890625 57.789062 71.816406 58.53125 71.617188 59.464844 C 71.484375 60.03125 71.277344 60.636719 71.011719 61.25 C 69.105469 65.5 63.824219 70.304688 57.84375 74.417969 C 54.917969 76.421875 51.839844 78.253906 48.898438 79.777344 C 47.605469 80.445312 46.339844 81.0625 45.125 81.601562 C 44.71875 81.785156 44.3125 81.953125 43.921875 82.121094 C 43.976562 81.96875 44.050781 81.816406 44.113281 81.660156 Z M 56.25 81.640625 C 58.003906 81.816406 59.835938 82.070312 61.757812 82.367188 C 70.917969 83.828125 77.230469 86.28125 83.195312 89.710938 C 87.132812 91.972656 90.910156 94.636719 95.265625 97.730469 C 94.179688 97.042969 93.085938 96.382812 91.933594 95.800781 C 79.832031 89.675781 66.300781 87.007812 52.898438 88.003906 C 53.847656 85.96875 54.980469 83.800781 56.25 81.640625 Z M 22.199219 67.921875 C 21.707031 68.019531 20.5 68.34375 20.40625 67.691406 C 24.144531 50.941406 21.914062 33.355469 14.171875 18.039062 C 13.589844 16.882812 12.925781 15.792969 12.242188 14.707031 C 15.335938 19.058594 18.007812 22.847656 20.269531 26.785156 C 23.695312 32.75 26.152344 39.0625 27.605469 48.214844 C 28.601562 54.488281 28.976562 59.871094 28.402344 64.285156 C 28.402344 64.300781 28.402344 64.332031 28.386719 64.351562 C 28.371094 64.859375 28.347656 65.363281 28.308594 65.863281 C 25.988281 66.859375 23.882812 67.578125 22.199219 67.921875 Z M 99.960938 103.828125 C 84.644531 96.085938 67.058594 93.855469 50.316406 97.601562 C 49.65625 97.5 49.972656 96.285156 50.078125 95.800781 C 50.417969 94.121094 51.136719 92.015625 52.136719 89.695312 C 52.636719 89.65625 53.140625 89.628906 53.648438 89.617188 C 53.671875 89.605469 53.714844 89.617188 53.730469 89.617188 C 58.136719 89.035156 63.519531 89.40625 69.792969 90.402344 C 78.953125 91.863281 85.265625 94.320312 91.230469 97.746094 C 95.160156 100.003906 98.9375 102.664062 103.277344 105.742188 C 102.191406 105.074219 101.097656 104.410156 99.960938 103.828125 Z M 99.960938 103.828125 " fill-opacity="1" fill-rule="nonzero"/></g></svg>